<svg xmlns="http://www.w3.org/2000/svg" width="128" height="128" viewBox="0 0 128 128">
  <defs>
    <linearGradient id="d-doc" x1="0" y1="0" x2="0.35" y2="1">
      <stop offset="0" stop-color="#6D5BF5"/>
      <stop offset="1" stop-color="#4330C9"/>
    </linearGradient>
    <linearGradient id="d-bolt" x1="0" y1="0" x2="0" y2="1">
      <stop offset="0" stop-color="#FFE27A"/>
      <stop offset="1" stop-color="#FFB020"/>
    </linearGradient>
  </defs>
  <!-- document sheet with folded top-right corner -->
  <path d="M36 10 H82 L110 38 V104 Q110 118 96 118 H36 Q22 118 22 104 V24 Q22 10 36 10 Z" fill="url(#d-doc)"/>
  <path d="M82 10 V30 Q82 38 90 38 H110 Z" fill="#B9B0FF"/>
  <path d="M82 30 Q82 38 90 38 H110 L104 32 H90 Q88 32 88 30 Z" fill="#3A29A8" opacity="0.35"/>
  <!-- lightning bolt -->
  <path d="M61 16 H82 L70 42 H88 L50 88 L57 57 H39 Z" fill="url(#d-bolt)" stroke="#2A1D86" stroke-width="2.5" stroke-linejoin="round"/>
  <!-- PDF tag -->
  <rect x="8" y="81" width="66" height="31" rx="8" fill="#E5343A" stroke="#FFFFFF" stroke-width="3"/>
  <g fill="none" stroke="#FFFFFF" stroke-width="4.6" stroke-linecap="butt" stroke-linejoin="miter">
    <path d="M20 106 V88 H28.5 A5.4 5.4 0 0 1 28.5 98.8 H20"/>
    <path d="M38.5 106 V88 H42.5 A9 9 0 0 1 42.5 106 Z"/>
    <path d="M57.5 106 V88 H67.5 M57.5 97 H65.5"/>
  </g>
</svg>
